<svg xmlns="http://www.w3.org/2000/svg" version="1.1" xmlns:xlink="http://www.w3.org/1999/xlink" xmlns:svgjs="http://svgjs.dev/svgjs" width="2000" height="474" viewBox="0 0 2000 474"><g transform="matrix(1,0,0,1,-1.2121212121212466,0.37120189186043717)"><svg viewBox="0 0 396 94" data-background-color="#ffffff" preserveAspectRatio="xMidYMid meet" height="474" width="2000" xmlns="http://www.w3.org/2000/svg" xmlns:xlink="http://www.w3.org/1999/xlink"><g id="tight-bounds" transform="matrix(1,0,0,1,0.2400000000000091,-0.07361387728877844)"><svg viewBox="0 0 395.52 94.14722775457759" height="94.14722775457759" width="395.52"><g><svg viewBox="0 0 395.52 94.14722775457759" height="94.14722775457759" width="395.52"><g><svg viewBox="0 0 395.52 94.14722775457759" height="94.14722775457759" width="395.52"><g id="textblocktransform"><svg viewBox="0 0 395.52 94.14722775457759" height="94.14722775457759" width="395.52" id="textblock"><g><svg viewBox="0 0 395.52 94.14722775457759" height="94.14722775457759" width="395.52"><g transform="matrix(1,0,0,1,0,0)"><svg width="395.52" viewBox="1.25 -36.35 155.64 37.050000000000004" height="94.14722775457759" data-palette-color="#7a26c1"><path d="M10.5-10.25L10.5-10.25Q10.5-6.8 15.48-6.8 20.45-6.8 20.45-9.9L20.45-9.9Q20.45-11.55 18.75-12.6 17.05-13.65 14.63-14.35 12.2-15.05 9.78-15.98 7.35-16.9 5.65-18.88 3.95-20.85 3.95-23.8L3.95-23.8Q3.95-36.35 20.1-36.35L20.1-36.35Q26-36.35 29.03-34.13 32.05-31.9 32.05-27.95L32.05-27.95Q32.05-26.5 31.68-25.18 31.3-23.85 30.9-23.3L30.9-23.3 30.5-22.7 21.65-22.7Q22.75-23.85 22.75-25.6L22.75-25.6Q22.75-28.85 18.5-28.85L18.5-28.85Q13.15-28.85 13.15-25.45L13.15-25.45Q13.15-23.75 14.85-22.75 16.55-21.75 18.98-21.18 21.4-20.6 23.85-19.75 26.3-18.9 28-16.93 29.7-14.95 29.7-11.8L29.7-11.8Q29.7-5.45 25.9-2.38 22.1 0.7 14.2 0.7 6.3 0.7 3.4-2.1L3.4-2.1Q1.25-4.2 1.25-7.9L1.25-7.9Q1.25-9.3 1.55-10.95L1.55-10.95 1.7-11.75 10.7-11.75 10.6-11.15Q10.5-10.65 10.5-10.25ZM60.4 0L50.9 0 51.2-7.85 42.85-7.85 40.4 0 30.85 0 43.7-36 60.2-36 60.4 0ZM52-27.25L48.85-27.25 44.9-14.55 51.45-14.55 52-27.25ZM89.35-7.8L87.95 0 65.15 0 71.5-36 80.5-36 75.55-7.8 89.35-7.8ZM124.29-36L122.89-28.2 110.59-28.2 105.64 0 96.59 0 101.54-28.2 89.19-28.2 90.59-36 124.29-36ZM138.29-23.35L139.44-23.35 147.89-36 156.89-36 141.49-13.85 139.04 0 129.99 0 132.44-13.85 124.84-36 134.39-36 138.29-23.35Z" opacity="1" transform="matrix(1,0,0,1,0,0)" fill="#ffffff" class="wordmark-text-0" data-fill-palette-color="primary" id="text-0"></path></svg></g></svg></g></svg></g></svg></g><g></g></svg></g><defs></defs></svg><rect width="395.52" height="94.14722775457759" fill="none" stroke="none" visibility="hidden"></rect></g></svg></g></svg>